<svg xmlns="http://www.w3.org/2000/svg" viewBox="0 0 220 220" fill="none">
  <defs>
    <mask id="tdm">
      <path fill="white" d="M 68 23 C 92 23, 110 41, 110 65 C 110 79, 104 91, 96 100 C 100 105, 106 112, 114 118 C 130 130, 148 130, 160 142 C 174 156, 174 178, 158 188 C 142 198, 120 194, 110 180 C 100 166, 104 148, 100 136 C 98 128, 92 122, 84 116 C 76 110, 66 106, 58 98 C 38 80, 26 56, 40 38 C 48 26, 58 23, 68 23 Z"/>
      <circle cx="68" cy="65" r="24" fill="black"/>
    </mask>
  </defs>
  <circle cx="152" cy="62" r="30" stroke="rgba(25,25,25,0.72)" stroke-width="7" fill="none"/>
  <circle cx="72" cy="130" r="18" stroke="rgba(25,25,25,0.72)" stroke-width="6" fill="none"/>
  <path fill="#6DC52A" mask="url(#tdm)" d="M 68 23 C 92 23, 110 41, 110 65 C 110 79, 104 91, 96 100 C 100 105, 106 112, 114 118 C 130 130, 148 130, 160 142 C 174 156, 174 178, 158 188 C 142 198, 120 194, 110 180 C 100 166, 104 148, 100 136 C 98 128, 92 122, 84 116 C 76 110, 66 106, 58 98 C 38 80, 26 56, 40 38 C 48 26, 58 23, 68 23 Z"/>
</svg>
